HIERARCHY
ROOT Hips
{
	OFFSET	0.00	0.00	0.00
	CHANNELS 6 Xposition Yposition Zposition Zrotation Xrotation Yrotation
	JOINT LeftUpLeg
	{
		OFFSET	 0.126116	-0.014019	-0.065224
		CHANNELS 3 Zrotation Xrotation Yrotation
		JOINT LeftLeg
		{
			OFFSET	 0.000000	 0.000000	 0.569914
			CHANNELS 3 Zrotation Xrotation Yrotation
			JOINT LeftFoot
			{
				OFFSET	 0.000000	 0.000000	 0.544423
				CHANNELS 3 Zrotation Xrotation Yrotation
				JOINT LeftToeBase
				{
					OFFSET	 0.000000	 0.000000	 0.207117
					CHANNELS 3 Zrotation Xrotation Yrotation
					End Site
					{
						OFFSET	 0.000000	 0.000000	 0.207117
					}
				}
			}
		}
	}
	JOINT RightUpLeg
	{
		OFFSET	-0.124023	-0.008373	-0.065224
		CHANNELS 3 Zrotation Xrotation Yrotation
		JOINT RightLeg
		{
			OFFSET	 0.000000	 0.000000	 0.570047
			CHANNELS 3 Zrotation Xrotation Yrotation
			JOINT RightFoot
			{
				OFFSET	 0.000000	 0.000000	 0.544354
				CHANNELS 3 Zrotation Xrotation Yrotation
				JOINT RightToeBase
				{
					OFFSET	 0.000000	 0.000000	 0.207540
					CHANNELS 3 Zrotation Xrotation Yrotation
					End Site
					{
						OFFSET	 0.000000	 0.000000	 0.207540
					}
				}
			}
		}
	}
	JOINT Spine
	{
		OFFSET	 0.000184	-0.007763	 0.117403
		CHANNELS 3 Zrotation Xrotation Yrotation
		JOINT Spine1
		{
			OFFSET	 0.000000	 0.000000	 0.137269
			CHANNELS 3 Zrotation Xrotation Yrotation
			JOINT Spine2
			{
				OFFSET	 0.000000	 0.000000	 0.156879
				CHANNELS 3 Zrotation Xrotation Yrotation
				JOINT LeftShoulder
				{
					OFFSET	 0.080501	-0.002496	 0.160144
					CHANNELS 3 Zrotation Xrotation Yrotation
					JOINT LeftArm
					{
						OFFSET	 0.000000	 0.000000	 0.164363
						CHANNELS 3 Zrotation Xrotation Yrotation
						JOINT LeftForeArm
						{
							OFFSET	 0.000000	 0.000000	 0.364576
							CHANNELS 3 Zrotation Xrotation Yrotation
							JOINT LeftHand
							{
								OFFSET	 0.000000	 0.000000	 0.360812
								CHANNELS 3 Zrotation Xrotation Yrotation
								JOINT LeftHandIndex1
								{
									OFFSET	 0.000000	 0.000000	 0.086006
									CHANNELS 3 Zrotation Xrotation Yrotation
									JOINT LeftHandIndex2
									{
										OFFSET	 0.000000	 0.000000	 0.047236
										CHANNELS 3 Zrotation Xrotation Yrotation
										JOINT LeftHandIndex3
										{
											OFFSET	-0.004284	-0.000551	 0.038166
											CHANNELS 3 Zrotation Xrotation Yrotation
											End Site
											{
												OFFSET	-0.004284	-0.000551	 0.038166
											}
										}
									}
								}
							}
						}
					}
				}
				JOINT Neck
				{
					OFFSET	 0.000000	 0.000000	 0.176489
					CHANNELS 3 Zrotation Xrotation Yrotation
					JOINT Head
					{
						OFFSET	 0.000000	-0.001747	 0.077940
						CHANNELS 3 Zrotation Xrotation Yrotation
						End Site
						{
							OFFSET	 0.000000	-0.001747	 0.077940
						}
					}
				}
				JOINT RightShoulder
				{
					OFFSET	-0.080363	 0.000306	 0.159706
					CHANNELS 3 Zrotation Xrotation Yrotation
					JOINT RightArm
					{
						OFFSET	 0.000000	 0.000000	 0.164196
						CHANNELS 3 Zrotation Xrotation Yrotation
						JOINT RightForeArm
						{
							OFFSET	 0.000000	 0.000000	 0.365611
							CHANNELS 3 Zrotation Xrotation Yrotation
							JOINT RightHand
							{
								OFFSET	 0.000000	 0.000000	 0.360648
								CHANNELS 3 Zrotation Xrotation Yrotation
								JOINT RightHandIndex1
								{
									OFFSET	 0.000000	 0.000000	 0.069977
									CHANNELS 3 Zrotation Xrotation Yrotation
									JOINT RightHandIndex2
									{
										OFFSET	 0.000000	 0.000000	 0.052305
										CHANNELS 3 Zrotation Xrotation Yrotation
										JOINT RightHandIndex3
										{
											OFFSET	 0.009002	-0.000782	 0.042196
											CHANNELS 3 Zrotation Xrotation Yrotation
											End Site
											{
												OFFSET	 0.009002	-0.000782	 0.042196
											}
										}
									}
								}
							}
						}
					}
				}
			}
		}
	}
}
MOTION
Frames:    9
Frame Time: 0.03333334
 0.012911	 0.036002	 1.200728	 4.505444	-1.330501	-2.731556	 11.869060	-10.148180	-174.908200	 0.719529	-39.202960	 0.185768	 64.148180	 82.802980	-67.967930	-2.370446	 31.440860	-0.065975	-16.707680	-32.089470	-176.279100	 9.951695	-49.662920	 8.203312	 5.672073	 70.705640	 0.112319	 2.358371	 33.088150	 0.105268	-10.728230	 8.690336	 2.149745	-2.168864	 2.310472	-1.561786	 3.329243	-2.056215	 1.661265	-93.864810	 58.901340	 175.553000	 7.633430	 29.146950	-43.668240	-3.385882	 0.023249	-1.680439	-2.402238	-20.797190	-7.652739	-4.870527	 19.224190	-2.787766	-3.882561	 21.459540	 2.203809	-4.807159	 5.558459	 0.146213	-0.098522	-5.048131	 0.172628	 1.123548	 1.995434	 2.817354	 89.803230	 61.617800	-179.949800	-20.466250	 52.730150	 13.416500	 0.867460	-0.773436	 6.764822	-3.466180	-6.640657	 0.820251	 6.298032	 25.332060	-0.557105	 1.820331	 45.222070	-6.934941	 0.455481	 24.585860	 3.604300
 0.012092	 0.018512	 1.199717	 4.760448	-1.188420	-2.722357	 11.496160	-9.313515	-175.211000	 0.823791	-38.948120	 0.296126	 68.644490	 83.322030	-72.564370	-2.369992	 31.515730	-0.067682	-17.471900	-33.132140	-176.817400	 9.731923	-47.325840	 7.752045	 4.295940	 70.243100	 1.533959	 2.358640	 33.049650	 0.104370	-12.741350	 8.607761	 2.108808	-2.227213	 2.454355	-1.562329	 3.292221	-2.213204	 1.676827	-93.912660	 58.928870	 175.447600	 7.014883	 28.190710	-43.959480	-4.637292	 0.085275	-2.168276	-3.069854	-21.409070	-8.360302	-4.870318	 19.234130	-2.789389	-3.880475	 21.486300	 2.201683	-4.806679	 5.564136	 0.145877	-0.084222	-5.065186	 0.179889	 1.128020	 1.945425	 2.765451	 89.788220	 61.636480	-179.985500	-20.491230	 53.304290	 12.111460	 1.791203	-0.778993	 8.366367	-2.930126	-7.133646	 0.841995	 6.294839	 24.992400	-0.546788	 1.866771	 44.851630	-6.976412	 0.508644	 24.353440	 3.577210
 0.010050	-0.023442	 1.196952	 5.278762	-0.784242	-2.720531	 10.850120	-7.227771	-175.881500	 1.104592	-38.078900	 0.463732	 80.545400	 84.321870	-84.599420	-2.369086	 31.666570	-0.071096	-19.243380	-34.747700	-178.232000	 9.220119	-40.344730	 6.497742	 0.550091	 68.042530	 5.376201	 2.358947	 33.003450	 0.103307	-16.940580	 8.338706	 1.997136	-2.378714	 2.792145	-1.533830	 3.205896	-2.568868	 1.695598	-94.026920	 58.967540	 175.199200	 5.471528	 26.054560	-44.570770	-7.116736	 0.272375	-3.195809	-4.363594	-22.722260	-9.674013	-4.867813	 19.303110	-2.794893	-3.874638	 21.560820	 2.195756	-4.805359	 5.579720	 0.144967	-0.056208	-5.092380	 0.206608	 1.119137	 1.844819	 2.676616	 89.747430	 61.701530	 179.917200	-20.441640	 54.455110	 10.142860	 3.588849	-0.421852	 9.633820	-1.877714	-8.151140	 0.885366	 6.285237	 24.186540	-0.542732	 1.968067	 44.024380	-7.066575	 0.662481	 23.675480	 3.499821
 0.007735	-0.064761	 1.193282	 5.757815	-0.310122	-2.736728	 10.254360	-5.155692	-176.528600	 1.288714	-37.016970	 0.563549	 94.194250	 85.024410	-98.315750	-2.368253	 31.803860	-0.074212	-21.042970	-35.215000	-179.770300	 8.855564	-32.064640	 5.138189	-2.627926	 65.918690	 8.414570	 2.359028	 32.990620	 0.103011	-20.824660	 8.001692	 1.864475	-2.535493	 3.037988	-1.482225	 3.112134	-2.880059	 1.698114	-94.147620	 58.987170	 174.939300	 4.100044	 24.158940	-45.058510	-9.315032	 0.520554	-4.161362	-5.497710	-23.965130	-10.784600	-4.863565	 19.411690	-2.802029	-3.867816	 21.647870	 2.188814	-4.803823	 5.597824	 0.143908	-0.031388	-5.110493	 0.242147	 1.092211	 1.753508	 2.610086	 89.700580	 61.786320	 179.804800	-20.214640	 55.293290	 9.466160	 5.177231	 0.182385	 8.156998	-0.951004	-9.076118	 0.931923	 6.273294	 23.339240	-0.554628	 2.066383	 43.195470	-7.153662	 0.844630	 22.862120	 3.410124
 0.005339	-0.102022	 1.188312	 6.088786	 0.150095	-2.875337	 9.884662	-3.263469	-177.015400	 1.421675	-36.034420	 0.628883	 109.624900	 85.395290	-113.790700	-2.367053	 31.999420	-0.078664	-22.305340	-35.685430	 178.963000	 8.851606	-25.556920	 4.177522	-4.381671	 64.593800	 9.708983	 2.359935	 32.857200	 0.099910	-24.444050	 7.616378	 1.844454	-2.660131	 3.227662	-1.417600	 3.023940	-3.127893	 1.678734	-94.258290	 58.991120	 174.702800	 3.154337	 22.709770	-45.439690	-11.683360	 0.835431	-5.103550	-6.775849	-25.294960	-11.479280	-4.856127	 19.585300	-2.810093	-3.859024	 21.759610	 2.179887	-4.799718	 5.646146	 0.141079	-0.015689	-5.141959	 0.277630	 1.044199	 1.665616	 2.579781	 89.635910	 61.871430	 179.648700	-19.773260	 55.758590	 9.702291	 6.603544	 0.777697	 5.178017	-0.217144	-9.925211	 0.774961	 6.257648	 22.366020	-0.581979	 2.161755	 42.365780	-7.237722	 1.061859	 21.877280	 3.305981
 0.002808	-0.135252	 1.181850	 6.314950	 0.576267	-3.080081	 9.647770	-1.562952	-177.409200	 1.518879	-35.279290	 0.673592	 126.395000	 85.376700	-130.594900	-2.365673	 32.218290	-0.083661	-23.173520	-37.535420	 177.824800	 9.141519	-22.484100	 3.818280	-5.323715	 64.328330	 10.144080	 2.361243	 32.660620	 0.095367	-27.604670	 7.223242	 1.892238	-2.752655	 3.430777	-1.334937	 2.942425	-3.351912	 1.641868	-94.357090	 58.985730	 174.493000	 2.478813	 21.591280	-45.831360	-13.991150	 1.188214	-5.965419	-8.043792	-26.578300	-11.898020	-4.847210	 19.787390	-2.818299	-3.849560	 21.879610	 2.170274	-4.794340	 5.709481	 0.137358	-0.006167	-5.179525	 0.311162	 0.984494	 1.584918	 2.572001	 89.564530	 61.952130	 179.475400	-19.332060	 56.339710	 8.267416	 7.772635	 1.123109	 6.040483	 0.345551	-10.653860	 0.507878	 6.240306	 21.372810	-0.616848	 2.249280	 41.581380	-7.314492	 1.285592	 20.846180	 3.202017
 0.000008	-0.168354	 1.174445	 6.427443	 0.846834	-3.272415	 9.477139	 0.368971	-177.854700	 1.581552	-34.405530	 0.694421	 140.832300	 85.210750	-145.025800	-2.362611	 32.693520	-0.094577	-23.439690	-40.058010	 176.900300	 9.212239	-21.539300	 3.715480	-5.488202	 67.387100	 9.770350	 2.358001	 33.142500	 0.106537	-30.528810	 6.875547	 1.967122	-2.828377	 3.782697	-1.261865	 2.888924	-3.602297	 1.608728	-94.421340	 58.975080	 174.357800	 1.799097	 20.771550	-46.212310	-16.163600	 1.582736	-6.780151	-9.393060	-27.553570	-12.309160	-4.836738	 20.001020	-2.821499	-3.837762	 22.028630	 2.158294	-4.783737	 5.834100	 0.130025	 0.007622	-5.226848	 0.329954	 0.943225	 1.488443	 2.549504	 89.503300	 62.005150	 179.326500	-18.701750	 56.789150	 6.800628	 8.802052	 1.510687	 6.858353	 0.858101	-11.433670	 0.064202	 6.219276	 20.244260	-0.660990	 2.384433	 40.325010	-7.432286	 1.527262	 19.713640	 3.093579
-0.002932	-0.202167	 1.167069	 6.496635	 1.054620	-3.457652	 9.329947	 2.527163	-178.318400	 1.627076	-33.134750	 0.696653	 152.459900	 85.071250	-156.635400	-2.358681	 33.276850	-0.108096	-23.166730	-42.428020	 176.338700	 9.299789	-21.425710	 3.707055	-4.869444	 72.226930	 8.575353	 2.352593	 33.905130	 0.124411	-33.237980	 6.543922	 2.051038	-2.911252	 4.088948	-1.216436	 2.841721	-3.813992	 1.584728	-94.471920	 58.962200	 174.252000	 1.218726	 20.132050	-46.461300	-18.249360	 2.016231	-7.555073	-10.756960	-28.354950	-12.713270	-4.825571	 20.220820	-2.822706	-3.824900	 22.190570	 2.145217	-4.770913	 5.984618	 0.121137	 0.023242	-5.278485	 0.342889	 0.906063	 1.385472	 2.520615	 89.445820	 62.047310	 179.186500	-17.968660	 57.139660	 5.353267	 9.731373	 1.936722	 7.638346	 1.329460	-12.188710	-0.453931	 6.195994	 19.052520	-0.709265	 2.534089	 38.866730	-7.561574	 1.775260	 18.531430	 2.986593
-0.005918	-0.236979	 1.160823	 6.633687	 1.118567	-3.584908	 9.125432	 5.025052	-178.852800	 1.711479	-31.220400	 0.704386	 159.708800	 85.503200	-163.885700	-2.350394	 34.421890	-0.135049	-23.239670	-43.699300	 175.800800	 9.638665	-21.229510	 3.800944	-3.874834	 74.711300	 6.905332	 2.345048	 34.898910	 0.148087	-35.813030	 6.470534	 2.111947	-3.014202	 4.022819	-1.234480	 2.803770	-3.963297	 1.585699	-94.508480	 58.935130	 174.178800	 0.698071	 19.774730	-46.365820	-19.967710	 2.471279	-8.273954	-12.199500	-29.283370	-13.585700	-4.831322	 20.360300	-2.896826	-3.809877	 22.378700	 2.129963	-4.752048	 6.205294	 0.108043	 0.057253	-5.331056	 0.349581	 0.901233	 1.310518	 2.402174	 89.403250	 62.024160	 179.084200	-17.142500	 57.365370	 3.823017	 10.661140	 2.387121	 8.356490	 1.940671	-13.108810	-0.880142	 6.179571	 17.838740	-0.711279	 2.685848	 37.311460	-7.691338	 2.024009	 17.325740	 2.883774
